<svg xmlns="http://www.w3.org/2000/svg" version="1.1" xmlns:xlink="http://www.w3.org/1999/xlink" xmlns:svgjs="http://svgjs.com/svgjs" width="1440" height="560" preserveAspectRatio="none" viewBox="0 0 1440 560"><g mask="url(&quot;#SvgjsMask1002&quot;)" fill="none"><rect width="1440" height="560" x="0" y="0" fill="url(#SvgjsLinearGradient1003)"></rect><path d="M1440 0L1421.88 0L1440 264.96z" fill="rgba(255, 255, 255, .1)"></path><path d="M1421.88 0L1440 264.96L1440 294.03L667.5600000000001 0z" fill="rgba(255, 255, 255, .075)"></path><path d="M667.56 0L1440 294.03L1440 395.64L335.90999999999997 0z" fill="rgba(255, 255, 255, .05)"></path><path d="M335.90999999999985 0L1440 395.64L1440 498.34999999999997L268.46999999999986 0z" fill="rgba(255, 255, 255, .025)"></path><path d="M0 560L479.73 560L0 449.9z" fill="rgba(0, 0, 0, .1)"></path><path d="M0 449.9L479.73 560L484.83000000000004 560L0 218.89999999999998z" fill="rgba(0, 0, 0, .075)"></path><path d="M0 218.89999999999998L484.83000000000004 560L973.8700000000001 560L0 138.95999999999998z" fill="rgba(0, 0, 0, .05)"></path><path d="M0 138.95999999999998L973.8700000000001 560L1029.6100000000001 560L0 131.74999999999997z" fill="rgba(0, 0, 0, .025)"></path></g><defs><mask id="SvgjsMask1002"><rect width="1440" height="560" fill="#ffffff"></rect></mask><linearGradient x1="15.28%" y1="-39.29%" x2="84.72%" y2="139.29%" gradientUnits="userSpaceOnUse" id="SvgjsLinearGradient1003"><stop stop-color="#0e2a47" offset="0"></stop><stop stop-color="#00459e" offset="1"></stop></linearGradient></defs></svg>